<svg xmlns="http://www.w3.org/2000/svg" viewBox="0 0 192 192" width="192" height="192">
  <defs>
    <linearGradient id="bg192" x1="0%" y1="0%" x2="100%" y2="100%">
      <stop offset="0%" stop-color="#722F37" />
      <stop offset="100%" stop-color="#4A1C23" />
    </linearGradient>
    <linearGradient id="roof192" x1="0%" y1="0%" x2="100%" y2="100%">
      <stop offset="0%" stop-color="#E07A5F" />
      <stop offset="100%" stop-color="#D97757" />
    </linearGradient>
  </defs>
  <rect width="192" height="192" rx="42" fill="url(#bg192)" />
  <g transform="scale(0.375)">
    <path d="M 160 240 L 160 360 C 160 373.2 170.8 384 184 384 L 328 384 C 341.2 384 352 373.2 352 360 L 352 240" fill="#FDFBF7" />
    <path d="M 128 250 L 256 144 L 384 250 C 392 256.5 392 268 382 272 C 375 275 366 273 360 268 L 256 182 L 152 268 C 146 273 137 275 130 272 C 120 268 120 256.5 128 250 Z" fill="url(#roof192)" />
    <path d="M 224 384 L 224 304 C 224 286.3 238.3 272 256 272 C 273.7 272 288 286.3 288 304 L 288 384 Z" fill="#722F37" />
    <circle cx="256" cy="120" r="28" fill="#E07A5F" stroke="#FDFBF7" stroke-width="4" />
  </g>
</svg>
